<?xml version="1.0" encoding="UTF-8" standalone="no"?>
<svg
   xmlns:dc="http://purl.org/dc/elements/1.1/"
   xmlns:cc="http://creativecommons.org/ns#"
   xmlns:rdf="http://www.w3.org/1999/02/22-rdf-syntax-ns#"
   xmlns:svg="http://www.w3.org/2000/svg"
   xmlns="http://www.w3.org/2000/svg"
   xmlns:xlink="http://www.w3.org/1999/xlink"
   xmlns:sodipodi="http://sodipodi.sourceforge.net/DTD/sodipodi-0.dtd"
   xmlns:inkscape="http://www.inkscape.org/namespaces/inkscape"
   inkscape:export-ydpi="512"
   inkscape:export-xdpi="512"
   inkscape:export-filename="/Users/erangoldin/git-repos/waze-to-google-maps/map128.png"
   inkscape:version="1.0 (4035a4f, 2020-05-01)"
   sodipodi:docname="map.svg"
   id="svg996"
   version="1.1"
   class="feather feather-map"
   stroke-linejoin="round"
   stroke-linecap="round"
   stroke-width="2"
   stroke="currentColor"
   fill="none"
   viewBox="0 0 24 24"
   height="24"
   width="24">
  <metadata
     id="metadata1002">
    <rdf:RDF>
      <cc:Work
         rdf:about="">
        <dc:format>image/svg+xml</dc:format>
        <dc:type
           rdf:resource="http://purl.org/dc/dcmitype/StillImage" />
      </cc:Work>
    </rdf:RDF>
  </metadata>
  <defs
     id="defs1000">
    <linearGradient
       id="linearGradient1024"
       inkscape:collect="always">
      <stop
         id="stop1020"
         offset="0"
         style="stop-color:#00ffff;stop-opacity:1" />
      <stop
         id="stop1022"
         offset="1"
         style="stop-color:#808080;stop-opacity:1" />
    </linearGradient>
    <linearGradient
       gradientUnits="userSpaceOnUse"
       y2="24.801001"
       x2="28.730289"
       y1="-1.1407615"
       x1="-5.5348058"
       id="linearGradient1026"
       xlink:href="#linearGradient1024"
       inkscape:collect="always" />
  </defs>
  <sodipodi:namedview
     inkscape:current-layer="svg996"
     inkscape:window-maximized="0"
     inkscape:window-y="25"
     inkscape:window-x="0"
     inkscape:cy="13.936971"
     inkscape:cx="12.5487"
     inkscape:zoom="23.6684"
     showgrid="false"
     id="namedview998"
     inkscape:window-height="1387"
     inkscape:window-width="2560"
     inkscape:pageshadow="2"
     inkscape:pageopacity="0"
     guidetolerance="10"
     gridtolerance="10"
     objecttolerance="10"
     borderopacity="1"
     bordercolor="#666666"
     pagecolor="#ffffff" />
  <path
     d="M 7.9589844 1 A 1.0001 1.0001 0 0 0 7.9179688 1.0039062 A 1.0001 1.0001 0 0 0 7.875 1.0078125 A 1 1 0 0 0 7.8574219 1.0097656 A 1 1 0 0 0 7.8046875 1.0195312 A 1.0001 1.0001 0 0 0 7.7695312 1.0273438 A 1 1 0 0 0 7.7441406 1.0332031 A 1.0001 1.0001 0 0 0 7.6699219 1.0566406 A 1.0001 1.0001 0 0 0 7.5917969 1.0878906 A 1.0001 1.0001 0 0 0 7.515625 1.125 A 1.0001 1.0001 0 0 0 7.5039062 1.1308594 L 0.50390625 5.1308594 A 1.0001 1.0001 0 0 0 0 6 L 0 22 A 1.0001 1.0001 0 0 0 1.4960938 22.869141 L 8.03125 19.132812 L 15.541016 22.888672 L 15.552734 22.894531 A 1 1 0 0 0 15.617188 22.923828 A 1.0001 1.0001 0 0 0 15.671875 22.945312 A 1 1 0 0 0 15.705078 22.955078 A 1.0001 1.0001 0 0 0 15.708984 22.957031 A 1 1 0 0 0 15.777344 22.974609 A 1.0001 1.0001 0 0 0 15.845703 22.988281 A 1.0001 1.0001 0 0 0 15.873047 22.992188 A 1 1 0 0 0 15.943359 22.998047 A 1.0001 1.0001 0 0 0 16 23 A 1.0001 1.0001 0 0 0 16.082031 22.996094 A 1.0001 1.0001 0 0 0 16.083984 22.996094 A 1 1 0 0 0 16.142578 22.990234 A 1 1 0 0 0 16.195312 22.980469 A 1 1 0 0 0 16.207031 22.978516 A 1.0001 1.0001 0 0 0 16.25 22.96875 A 1 1 0 0 0 16.255859 22.966797 A 1.0001 1.0001 0 0 0 16.330078 22.943359 A 1.0001 1.0001 0 0 0 16.408203 22.912109 A 1.0001 1.0001 0 0 0 16.484375 22.875 A 1 1 0 0 0 16.496094 22.869141 L 23.496094 18.869141 A 1.0001 1.0001 0 0 0 24 18 L 24 2 A 1.0001 1.0001 0 0 0 22.503906 1.1308594 L 15.96875 4.8671875 L 8.4589844 1.1113281 A 1 1 0 0 0 8.4472656 1.1054688 A 1.0001 1.0001 0 0 0 8.3828125 1.0761719 A 1.0001 1.0001 0 0 0 8.328125 1.0546875 A 1.0001 1.0001 0 0 0 8.3046875 1.046875 A 1 1 0 0 0 8.2910156 1.0429688 A 1.0001 1.0001 0 0 0 8.2226562 1.0253906 A 1.0001 1.0001 0 0 0 8.1503906 1.0117188 A 1.0001 1.0001 0 0 0 8.140625 1.0097656 A 1 1 0 0 0 8.0566406 1.0019531 A 1.0001 1.0001 0 0 0 8 1 A 1.0001 1.0001 0 0 0 7.9589844 1 z M 9 3.6171875 L 15 6.6171875 L 15 20.382812 L 9 17.382812 L 9 3.6171875 z M 7 3.7226562 L 7 17.417969 L 2 20.275391 L 2 6.5800781 L 7 3.7226562 z M 22 3.7246094 L 22 17.419922 L 17 20.277344 L 17 6.5820312 L 22 3.7246094 z "
     style="color:#000000;font-style:normal;font-variant:normal;font-weight:normal;font-stretch:normal;font-size:medium;line-height:normal;font-family:sans-serif;font-variant-ligatures:normal;font-variant-position:normal;font-variant-caps:normal;font-variant-numeric:normal;font-variant-alternates:normal;font-variant-east-asian:normal;font-feature-settings:normal;font-variation-settings:normal;text-indent:0;text-align:start;text-decoration:none;text-decoration-line:none;text-decoration-style:solid;text-decoration-color:#000000;letter-spacing:normal;word-spacing:normal;text-transform:none;writing-mode:lr-tb;direction:ltr;text-orientation:mixed;dominant-baseline:auto;baseline-shift:baseline;text-anchor:start;white-space:normal;shape-padding:0;shape-margin:0;inline-size:0;clip-rule:nonzero;display:inline;overflow:visible;visibility:visible;isolation:auto;mix-blend-mode:normal;color-interpolation:sRGB;color-interpolation-filters:linearRGB;solid-color:#000000;solid-opacity:1;vector-effect:none;fill:url(#linearGradient1026);fill-opacity:1;fill-rule:nonzero;stroke:none;stroke-width:2;stroke-linecap:butt;stroke-linejoin:miter;stroke-miterlimit:4;stroke-dasharray:none;stroke-dashoffset:0;stroke-opacity:1;color-rendering:auto;image-rendering:auto;shape-rendering:auto;text-rendering:auto;enable-background:accumulate;stop-color:#000000;stop-opacity:1;opacity:1"
     id="path1017" />
</svg>
